<svg width="194" height="284" viewBox="0 0 194 284" fill="none" xmlns="http://www.w3.org/2000/svg">
<path d="M0 0C75.7617 0 118.238 0 194 0V284H0V0Z" fill="url(#paint0_linear_17192_12)"/>
<path d="M136 0C136 5.12155 134.991 10.193 133.031 14.9247C131.071 19.6564 128.199 23.9557 124.577 27.5772C120.956 31.1986 116.656 34.0714 111.925 36.0313C107.193 37.9912 102.122 39 97 39C91.8784 39 86.807 37.9912 82.0753 36.0313C77.3436 34.0714 73.0443 31.1986 69.4228 27.5772C65.8013 23.9557 62.9286 19.6563 60.9687 14.9247C59.0088 10.193 58 5.12155 58 -3.40949e-06L97 0H136Z" fill="black"/>
<defs>
<linearGradient id="paint0_linear_17192_12" x1="97" y1="0" x2="97" y2="284" gradientUnits="userSpaceOnUse">
<stop stop-color="#61B3C9"/>
<stop offset="1" stop-color="#074D88"/>
</linearGradient>
</defs>
</svg>
